<svg xmlns="http://www.w3.org/2000/svg" viewBox="0 0 800 1000">
  <defs>
    <filter id="soft" x="-40%" y="-40%" width="180%" height="180%"><feGaussianBlur stdDeviation="18"/></filter>
    <linearGradient id="cover" x1="0" y1="0" x2="1" y2="1">
      <stop offset="0" stop-color="#232320"/><stop offset="1" stop-color="#121210"/>
    </linearGradient>
    <g id="logoE">
      <path d="M0,-11 L9.5,-5.5 L9.5,5.5 L0,11 L-9.5,5.5 L-9.5,-5.5 Z" fill="none" stroke="#3A3A34" stroke-width="1.6"/>
      <path d="M0,-6.2 L5,-3.4 L0,-0.6 L-5,-3.4 Z" fill="#3A3A34"/>
      <path d="M-5,-3.4 L0,-0.6 L0,5.8 L-5,3 Z" fill="#3A3A34" opacity="0.8"/>
      <path d="M5,-3.4 L0,-0.6 L0,5.8 L5,3 Z" fill="#3A3A34" opacity="0.6"/>
    </g>
  </defs>
  <rect width="800" height="1000" fill="#F6F5F1"/>
  <ellipse cx="400" cy="800" rx="200" ry="22" fill="#161614" opacity="0.10" filter="url(#soft)"/>
  <!-- page block -->
  <rect x="286" y="270" width="252" height="516" rx="10" fill="#EDEBE3"/>
  <!-- cover -->
  <rect x="266" y="258" width="260" height="520" rx="14" fill="url(#cover)"/>
  <path d="M266 272 C266 264 272 258 280 258 L292 258 L292 778 L280 778 C272 778 266 772 266 764 Z" fill="#000000" opacity="0.35"/>
  <!-- elastic -->
  <rect x="474" y="258" width="9" height="520" fill="#7F8B2F"/>
  <!-- blind emboss -->
  <use href="#logoE" transform="translate(396,470) scale(3.8)"/>
  <text x="396" y="552" text-anchor="middle" font-family="Arial, Helvetica, sans-serif" font-size="15" letter-spacing="7" fill="#3A3A34">HEXA SPACE</text>
</svg>
